<?xml version="1.0" encoding="utf-8"?>
<!-- Generator: Adobe Illustrator 18.0.0, SVG Export Plug-In . SVG Version: 6.00 Build 0)  -->
<!DOCTYPE svg PUBLIC "-//W3C//DTD SVG 1.1//EN" "http://www.w3.org/Graphics/SVG/1.1/DTD/svg11.dtd">
<svg version="1.1" id="Layer_1" xmlns="http://www.w3.org/2000/svg" xmlns:xlink="http://www.w3.org/1999/xlink" x="0px" y="0px"
	 viewBox="0 33.5 100 33.2" enable-background="new 0 33.5 100 33.2" xml:space="preserve">
<rect x="1.3" y="40.4" fill="none" width="16.3" height="19.1"/>
<text transform="matrix(1 0 0 1 1.2753 57.5126)" fill="#48B2D3" font-family="'NimbusSan-Reg'" font-size="25.5102">h</text>
<linearGradient id="SVGID_1_" gradientUnits="userSpaceOnUse" x1="18.3642" y1="93.2039" x2="25.2701" y2="78.2411" gradientTransform="matrix(1.2755 0 0 -1.2755 0 161.352)">
	<stop  offset="0" style="stop-color:#FFFFFF"/>
	<stop  offset="1" style="stop-color:#43698F"/>
</linearGradient>
<path fill="url(#SVGID_1_)" d="M27.3,42.1c-4.3,0.1-8.9,3.3-9.2,7.1c-0.3,3.1,0.8,10.5,9.1,10.6c5.2,0.1,7.5-2.2,8.7-4.7
	C37.6,51.4,36.4,41.7,27.3,42.1z"/>
<linearGradient id="SVGID_2_" gradientUnits="userSpaceOnUse" x1="21.2581" y1="85.3833" x2="21.2581" y2="95.3237" gradientTransform="matrix(1.2755 0 0 -1.2755 0 161.352)">
	<stop  offset="0" style="stop-color:#FFFFFF"/>
	<stop  offset="1" style="stop-color:#0080C6"/>
</linearGradient>
<path fill="url(#SVGID_2_)" d="M27.2,40.3c-4.2,0.1-7.7,2.9-8.9,7.3c-0.9,3.1,0.6,9.4,8.7,10.6c5.7,0.8,7.9-2.2,8.8-4.7
	C37.1,49.9,36,39.9,27.2,40.3z"/>
<linearGradient id="SVGID_3_" gradientUnits="userSpaceOnUse" x1="21.4905" y1="80.3662" x2="20.4957" y2="99.0173" gradientTransform="matrix(1.2755 0 0 -1.2755 0 161.352)">
	<stop  offset="0" style="stop-color:#FFFFFF"/>
	<stop  offset="1" style="stop-color:#0096D9"/>
</linearGradient>
<path fill="url(#SVGID_3_)" d="M27.2,40.8c-4.8,0-7.9,3.7-8.9,7.4c-0.9,3.1,0.4,10.6,8.7,10.3c5.5-0.1,7.7-2.2,8.7-4.7
	C36.7,51.1,35.6,40.9,27.2,40.8z"/>
<linearGradient id="SVGID_4_" gradientUnits="userSpaceOnUse" x1="21.354" y1="93.0279" x2="20.6246" y2="83.7882" gradientTransform="matrix(1.2755 0 0 -1.2755 0 161.352)">
	<stop  offset="0" style="stop-color:#FFFFFF"/>
	<stop  offset="1" style="stop-color:#0094D9"/>
</linearGradient>
<path fill="url(#SVGID_4_)" d="M22.2,45.5c0-1.4,1.5-3.4,5.1-3.4s5.1,1.9,4.5,3.2c-0.5,1.3-2.4,3.6-5.2,3.3
	C23.7,48.3,22.2,47.6,22.2,45.5z"/>
<rect x="11.4" y="53.3" fill="none" width="12.5" height="11.9"/>
<text transform="matrix(1 0 0 1 11.3203 62.5341)" fill="#939393" font-family="'Univers-Bold'" font-size="12.7551">2</text>
<line fill="none" stroke="#D1D1D1" stroke-width="0.5" stroke-miterlimit="10" x1="40.7" y1="35.8" x2="40.7" y2="63"/>
<rect x="44" y="41.6" fill="none" width="68.6" height="18"/>
<text transform="matrix(1 0 0 1 44.0049 54.3749)" fill="#939393" font-family="'NimbusSan-Lig'" font-size="19.1327">nigeria</text>
<rect x="12.9" y="74.5" fill="none" width="115.9" height="18"/>
</svg>
